<?xml version="1.0" encoding="UTF-8"?>
<svg version="1.1" xmlns="http://www.w3.org/2000/svg" width="433" height="454">
<path d="M0 0 C6.27 0 12.54 0 19 0 C23.85426523 10.37700715 28.67224696 20.76933 33.4375 31.1875 C33.95031021 32.30824417 33.95031021 32.30824417 34.47348022 33.45162964 C39.99470945 45.52671163 45.42084147 57.64182696 50.79537964 69.7828064 C56.30069768 82.21734557 61.88315594 94.61546608 67.5 107 C73.3851211 119.97742004 79.2295894 132.97116096 85 146 C91.63433555 160.97833105 98.36997927 175.90944475 105.13134766 190.83081055 C105.9274328 192.58771702 106.72349432 194.34463419 107.51953125 196.1015625 C107.90608887 196.95472549 108.29264648 197.80788849 108.69091797 198.68690491 C113.65791597 209.65421199 118.57756437 220.64260357 123.49365234 231.6328125 C126.05595548 237.36041134 128.62141279 243.08659567 131.1875 248.8125 C131.71134277 249.98143799 132.23518555 251.15037598 132.77490234 252.35473633 C137.50570613 262.90806102 142.2525496 273.4541558 147 284 C154.85923034 301.45825901 162.69684721 318.92605847 170.52246094 336.39941406 C177.72059362 352.47019724 184.9370756 368.53260101 192.16583252 384.58963013 C197.66612565 396.80760342 203.16237194 409.02735478 208.6315918 421.25927734 C211.00023436 426.5545213 213.38032045 431.84361421 215.796875 437.1171875 C216.22476318 438.0546582 216.65265137 438.99212891 217.09350586 439.95800781 C217.87860385 441.67569466 218.66813926 443.39136374 219.46313477 445.10449219 C222 450.66517512 222 450.66517512 222 454 C197.58 454 173.16 454 148 454 C139.96162975 436.77492089 139.96162975 436.77492089 137.1953125 430.375 C136.87436615 429.63721313 136.5534198 428.89942627 136.2227478 428.13928223 C135.18833127 425.76031342 134.1566664 423.38016253 133.125 421 C132.38237424 419.29092315 131.63953074 417.5819409 130.89648438 415.87304688 C129.35886476 412.33629989 127.82216548 408.79915523 126.28613281 405.26171875 C123.04920922 397.80914713 119.80082233 390.3615768 116.55270386 382.91387939 C114.78340796 378.85683441 113.0147288 374.79952061 111.24609375 370.7421875 C110.89521194 369.93727875 110.54433014 369.13237 110.18281555 368.30307007 C108.06688706 363.44883289 105.95210423 358.59409837 103.83822632 353.7389679 C96.16975049 336.1262743 88.4797168 318.52341213 80.75 300.9375 C75.09538447 288.0724194 69.46889538 275.19613067 63.89038086 262.29785156 C59.54621624 252.2544618 55.18432135 242.21888246 50.8125 232.1875 C50.45763519 231.37320526 50.10277039 230.55891052 49.7371521 229.71994019 C43.72095343 215.91829262 37.67209281 202.13110442 31.61169434 188.34881592 C27.74804233 179.56165151 23.89157676 170.77171956 20.08203125 161.9609375 C19.62680588 160.90819389 19.62680588 160.90819389 19.16238403 159.83418274 C17.76176398 156.59315969 16.36384904 153.35100083 14.96972656 150.10717773 C14.48600586 148.98512939 14.00228516 147.86308105 13.50390625 146.70703125 C13.08955322 145.7425708 12.6752002 144.77811035 12.24829102 143.78442383 C10.91525396 140.81096644 9.47632307 137.90462473 8 135 C-2.50185441 157.59201002 -12.94809365 180.20651157 -23.23078918 202.89912415 C-26.80140081 210.77482095 -30.4014611 218.63703589 -34 226.5 C-39.18253939 237.82615819 -44.35015044 249.1589411 -49.5 260.5 C-54.98449903 272.57802788 -60.49125779 284.64570697 -66.01025391 296.70800781 C-70.85541423 307.29844533 -75.6846908 317.89595812 -80.5 328.5 C-85.63101805 339.79846227 -90.77666985 351.0901227 -95.9375 362.375 C-96.26894012 363.09975525 -96.60038025 363.8245105 -96.94186401 364.57122803 C-99.63072713 370.45052923 -102.32053271 376.32939914 -105.01037598 382.20825195 C-107.02781157 386.61759819 -109.04498518 391.0270641 -111.06170654 395.43673706 C-111.72575088 396.88868862 -112.38985351 398.34061352 -113.05401611 399.79251099 C-116.79198714 407.96468739 -120.52120211 416.14074196 -124.234375 424.32421875 C-124.57903305 425.08359741 -124.9236911 425.84297607 -125.27879333 426.62536621 C-126.92650653 430.25618147 -128.57290428 433.88758335 -130.21704102 437.52001953 C-130.80741877 438.82195627 -131.39783034 440.12387768 -131.98828125 441.42578125 C-132.49915283 442.55411377 -133.01002441 443.68244629 -133.53637695 444.8449707 C-134.96510589 447.92478121 -136.48167862 450.96335723 -138 454 C-162.09 454 -186.18 454 -211 454 C-210.05037285 449.25186425 -208.50575281 445.48279475 -206.421875 441.18359375 C-206.05935135 440.42391296 -205.6968277 439.66423218 -205.32331848 438.88153076 C-204.54366213 437.249156 -203.761499 435.61797662 -202.9770813 433.98788452 C-201.31355301 430.5303819 -199.66259126 427.06693133 -198.01100159 423.60371399 C-197.17748567 421.85610274 -196.343368 420.10877836 -195.50865173 418.36174011 C-192.14758961 411.324481 -188.8372017 404.26542727 -185.5625 397.1875 C-185.05984619 396.10218994 -184.55719238 395.01687988 -184.03930664 393.89868164 C-182.67153808 390.94332836 -181.3049121 387.98745005 -179.93884277 385.03131104 C-176.52475316 377.64447471 -173.10670936 370.25946763 -169.6875 362.875 C-169.07961136 361.56196899 -169.07961136 361.56196899 -168.45944214 360.22241211 C-162.88810801 348.19171074 -157.28010813 336.17904418 -151.625 324.1875 C-143.96284997 307.93954543 -136.38948749 291.65129795 -128.84765625 275.34716797 C-126.46177571 270.18939051 -124.07504506 265.03200716 -121.6875 259.875 C-121.28242218 259.00000854 -120.87734436 258.12501709 -120.45999146 257.22351074 C-114.56181946 244.48708463 -108.61763673 231.77322556 -102.63031006 219.07849121 C-96.55987767 206.20732625 -90.55236315 193.30796725 -84.57226562 180.39453125 C-77.42396019 164.96129542 -70.25655947 149.53695801 -63.0625 134.125 C-62.77040649 133.49923065 -62.47831299 132.8734613 -62.17736816 132.22872925 C-59.01052739 125.44468015 -55.84187828 118.66147821 -52.671875 111.87890625 C-51.55194322 109.48183629 -50.43215324 107.08470008 -49.3125 104.6875 C-49.0312326 104.08532654 -48.74996521 103.48315308 -48.46017456 102.86273193 C-43.97371974 93.25504393 -39.51343423 83.6353797 -35.06030273 74.01220703 C-28.49247836 59.81932208 -21.91598796 45.6307107 -15.26629639 31.47595215 C-14.60333999 30.06467639 -13.94092039 28.65314831 -13.27911377 27.24133301 C-8.98735967 18.08978625 -4.55084562 9.02584381 0 0 Z " fill="white" transform="translate(211,0)"/>
</svg>
