<?xml version="1.0" encoding="utf-8"?>
<!-- Generator: Adobe Illustrator 16.0.0, SVG Export Plug-In . SVG Version: 6.00 Build 0)  -->
<!DOCTYPE svg PUBLIC "-//W3C//DTD SVG 1.1//EN" "http://www.w3.org/Graphics/SVG/1.1/DTD/svg11.dtd">
<svg version="1.1" id="Layer_1" xmlns="http://www.w3.org/2000/svg" xmlns:xlink="http://www.w3.org/1999/xlink" x="0px" y="0px"
	 width="292px" height="54px" viewBox="0 0 292 54" enable-background="new 0 0 292 54" xml:space="preserve">
<g>
	<g>
		<path d="M103.869,28.191c0-9.845,6.917-17.759,16.01-18.914V2.145C106.587,3.542,96.295,14.656,96.295,28.26
			c0,13.493,10.334,24.489,23.584,25.634v-7.169C110.699,45.576,103.869,37.873,103.869,28.191z"/>
	</g>
	<path d="M291.094,10.102V2.97h-27.612v50.064h27.612v-7.132h-20.04v-16.66h19.437V22.11h-19.437V10.102H291.094z M244.673,10.102
		h11.48V2.97h-30.548v7.132h11.48v42.932h7.587V10.102z"/>
	<g>
		<path d="M156.927,34.111h12.468c-0.683,7.061-7.442,12.757-14.948,12.757c-3.978,0-8.1-1.648-11.548-4.49
			c-4.358-3.61-6.612-8.411-6.612-14.267c0-10.733,8.107-18.987,18.699-18.987c6.074,0,10.721,2.555,15.005,8.254l5.399-5.173
			c-2.33-2.7-3.673-3.979-5.551-5.329c-4.282-3.154-9.538-4.877-15.013-4.877c-14.561,0-26.115,11.556-26.115,26.113
			c0,14.267,11.483,25.889,25.511,25.889c7.508,0,14.634-3.523,18.988-9.456c3.085-4.198,4.425-8.702,4.425-15.235v-2.323h-20.709
			V34.111z"/>
		<path d="M85.437,17.682c0-4.803-2.328-9.305-6.007-11.785c-3.153-2.101-6.75-2.927-13.206-2.927h-8.859v50.065h7.585V32.546h1.351
			l14.255,20.488h9.231L74.328,31.721C81.006,30.292,85.437,24.663,85.437,17.682z M64.95,25.937V10.102h2.7
			c6.906,0,10.43,2.628,10.43,7.658c0,5.323-3.751,8.176-10.728,8.176H64.95z"/>
	</g>
	<polygon fill="#F1604D" points="203.894,16.78 203.895,16.78 203.896,16.78 219.694,53.034 227.909,53.034 205.023,1.981 
		203.041,1.981 179.284,53.034 187.384,53.034 	"/>
	<polygon points="24.71,16.78 24.71,16.794 24.717,16.78 40.511,53.034 48.724,53.034 25.831,1.981 23.855,1.981 0.094,53.034 
		8.2,53.034 	"/>
</g>
</svg>
